<?xml version="1.0" standalone="no"?>
<!DOCTYPE svg PUBLIC "-//W3C//DTD SVG 20010904//EN"
 "http://www.w3.org/TR/2001/REC-SVG-20010904/DTD/svg10.dtd">
<svg version="1.0" xmlns="http://www.w3.org/2000/svg"
 width="512.000000pt" height="512.000000pt" viewBox="0 0 512.000000 512.000000"
 preserveAspectRatio="xMidYMid meet">

<g transform="translate(0.000000,512.000000) scale(0.100000,-0.100000)"
fill="#000000" stroke="none">
<path d="M2380 4793 c-93 -7 -259 -35 -375 -65 -551 -137 -1036 -494 -1350
-993 -202 -321 -326 -732 -329 -1097 -1 -149 4 -165 68 -212 39 -29 133 -29
172 0 60 44 67 64 76 206 13 228 53 424 121 604 233 609 759 1063 1388 1198
651 141 1324 -59 1782 -529 l59 -60 -345 -5 c-329 -5 -347 -6 -373 -26 -53
-39 -69 -71 -69 -134 0 -63 16 -95 69 -134 27 -21 38 -21 566 -21 528 0 539 0
566 21 15 11 37 33 48 48 21 27 21 38 21 566 0 528 0 539 -21 566 -39 53 -71
69 -134 69 -63 0 -95 -16 -134 -69 -20 -26 -21 -43 -24 -307 l-3 -280 -71 63
c-186 166 -322 259 -530 362 -359 180 -772 260 -1178 229z"/>
<path d="M4575 2706 c-66 -30 -95 -84 -95 -179 0 -89 -26 -298 -50 -397 -86
-359 -258 -669 -514 -926 -515 -516 -1267 -693 -1969 -463 -277 90 -534 249
-746 460 l-74 74 346 5 c329 5 347 6 373 26 53 39 69 71 69 134 0 63 -16 95
-69 134 -27 21 -38 21 -566 21 -528 0 -539 0 -566 -21 -15 -11 -37 -33 -48
-48 -21 -27 -21 -38 -21 -566 0 -528 0 -539 21 -566 39 -53 71 -69 134 -69 63
0 95 16 134 69 20 26 21 43 24 307 l3 280 71 -63 c186 -166 322 -259 530 -362
840 -419 1859 -266 2537 380 429 408 690 989 695 1546 1 148 -4 165 -66 211
-34 25 -113 32 -153 13z"/>
</g>
</svg>
